<?xml version="1.0" encoding="UTF-8" standalone="no"?>
<svg
   xmlns:dc="http://purl.org/dc/elements/1.1/"
   xmlns:cc="http://creativecommons.org/ns#"
   xmlns:rdf="http://www.w3.org/1999/02/22-rdf-syntax-ns#"
   xmlns:svg="http://www.w3.org/2000/svg"
   xmlns="http://www.w3.org/2000/svg"
   xmlns:sodipodi="http://sodipodi.sourceforge.net/DTD/sodipodi-0.dtd"
   xmlns:inkscape="http://www.inkscape.org/namespaces/inkscape"
   version="1.1"
   x="0px"
   y="0px"
   viewBox="0 0 16 16"
   style="enable-background:new 0 0 16 16;"
   xml:space="preserve"
   id="svg4"
   sodipodi:docname="safari-pinned-tab.svg"
   inkscape:version="0.92.5 (2060ec1f9f, 2020-04-08)"><metadata
   id="metadata10"><rdf:RDF><cc:Work
       rdf:about=""><dc:format>image/svg+xml</dc:format><dc:type
         rdf:resource="http://purl.org/dc/dcmitype/StillImage" /></cc:Work></rdf:RDF></metadata><defs
   id="defs8" /><sodipodi:namedview
   pagecolor="#ffffff"
   bordercolor="#666666"
   borderopacity="1"
   objecttolerance="10"
   gridtolerance="10"
   guidetolerance="10"
   inkscape:pageopacity="0"
   inkscape:pageshadow="2"
   inkscape:window-width="1366"
   inkscape:window-height="697"
   id="namedview6"
   showgrid="false"
   inkscape:zoom="3.6875"
   inkscape:cx="17.090889"
   inkscape:cy="1.8552497"
   inkscape:window-x="-8"
   inkscape:window-y="-8"
   inkscape:window-maximized="1"
   inkscape:current-layer="svg4" />  <g
   id="g842"
   transform="matrix(0.21205769,0,0,0.21205769,-3.8216387,10.084636)"><path
     id="path869-3-4-3-0"
     d="M 72.120266,28.130856 H 39.374287 c -3.184806,0 -5.766834,-2.58203 -5.766834,-5.76683 v -52.01406 c 0,-3.18509 2.582028,-5.76711 5.766834,-5.76711 h 32.745979 c 3.185085,0 5.766834,2.58202 5.766834,5.76711 v 52.01406 c 0,3.1848 -2.581749,5.76683 -5.766834,5.76683"
     inkscape:connector-curvature="0"
     style="clip-rule:evenodd;fill:#356250;fill-opacity:1;fill-rule:evenodd;stroke-width:0.27790633" /><path
     id="path871-6-5-4-7"
     d="M 61.843568,14.976716 H 49.836347 c -3.130614,0 -5.668454,-2.53784 -5.668454,-5.6681801 V -16.594274 c 0,-3.13062 2.53784,-5.66846 5.668454,-5.66846 h 12.007221 c 3.130615,0 5.668454,2.53784 5.668454,5.66846 V 9.3085359 c 0,3.1303401 -2.537839,5.6681801 -5.668454,5.6681801"
     inkscape:connector-curvature="0"
     style="clip-rule:evenodd;fill:#ffffff;fill-rule:evenodd;stroke-width:0.27790633" /><path
     id="path873-9-0-6-3"
     d="m 57.830877,8.1215959 h -3.98184 c -2.993329,0 -5.420007,-2.42639 -5.420007,-5.42 v -12.50412 c 0,-2.9933299 2.426678,-5.4200099 5.420007,-5.4200099 h 3.981564 c 2.993329,0 5.420006,2.42668 5.420006,5.4200099 v 12.50412 c 0,2.99333 -2.426399,5.42 -5.41973,5.42"
     inkscape:connector-curvature="0"
     style="clip-rule:evenodd;fill:#356250;fill-opacity:1;fill-rule:evenodd;stroke-width:0.27790633" /><g
     inkscape:export-ydpi="299.92899"
     inkscape:export-xdpi="299.92899"
     id="g1001-1-8-7"
     transform="matrix(0.89842989,0,0,0.89842989,-177.00176,99.296132)"><g
       id="g1050-7-7-1"
       transform="translate(-14.583862,-48.799846)"><path
         d="m 260.57857,-107.43716 c -1.17178,-0.98599 -1.70057,-2.63122 -1.29745,-4.03681 0.34165,-1.19128 1.49007,-2.50063 2.19932,-2.50752 0.40337,-0.004 0.41773,-0.0597 0.0718,-0.27892 -0.30534,-0.19349 -0.13115,-0.31824 0.59269,-0.42448 1.24852,-0.18324 2.61141,0.0458 2.39135,0.40185 -0.0885,0.14321 0.13911,0.3556 0.50581,0.47198 1.60297,0.50877 2.38291,3.41737 1.41715,5.28494 -1.02674,1.98549 -4.13186,2.56049 -5.88067,1.08896 z m 0.25807,0.41097 c -2.50417,-1.68757 -2.54995,-4.80401 -0.10167,-6.92115 1.84014,-1.59126 4.86844,-0.71335 6.03751,1.75029 0.61261,1.29098 0.61983,2.0955 0.0314,3.50373 -0.93583,2.23977 -3.89199,3.06565 -5.96727,1.66713 z m 0,0 c -2.50417,-1.68757 -2.54995,-4.80401 -0.10167,-6.92115 1.84014,-1.59126 4.86844,-0.71335 6.03751,1.75029 0.61261,1.29098 0.61983,2.0955 0.0314,3.50373 -0.93583,2.23977 -3.89199,3.06565 -5.96727,1.66713 z m 0.3544,0.4891 c -1.46476,-0.73591 -2.56638,-2.41837 -2.56638,-3.9195 0,-0.69967 0.29762,-1.63087 0.72638,-2.27268 2.06893,-3.09701 6.36668,-2.70031 7.73272,0.71376 0.88316,2.20724 -0.0206,4.49421 -2.18116,5.51947 -1.40252,0.66554 -2.32551,0.65533 -3.71156,-0.041 z m 0,0 c -1.46476,-0.73591 -2.56638,-2.41837 -2.56638,-3.9195 0,-0.69967 0.29762,-1.63087 0.72638,-2.27268 2.06893,-3.09701 6.36668,-2.70031 7.73272,0.71376 0.88316,2.20724 -0.0206,4.49421 -2.18116,5.51947 -1.40252,0.66554 -2.32551,0.65533 -3.71156,-0.041 z m -0.45307,0.17361 c -3.17613,-1.86772 -3.22866,-6.38459 -0.0928,-7.98436 3.43019,-1.74995 7.57691,0.77276 7.13973,4.34355 -0.41266,3.37055 -4.18879,5.32151 -7.04688,3.64081 z"
         style="fill:#356250;stroke-width:0.31999999"
         id="path4542-6-2-1-6"
         inkscape:connector-curvature="0" /><path
         d="m 281.47266,-107.70459 c -0.94516,-0.94516 -1.088,-1.29659 -1.088,-2.67685 0,-1.71343 0.7609,-3.06727 1.93299,-3.43927 0.34997,-0.11108 0.56389,-0.31912 0.47538,-0.46233 -0.21128,-0.34186 1.21557,-0.6061 2.2279,-0.41258 0.43795,0.0837 0.72385,0.26938 0.63535,0.41258 -0.0885,0.14321 0.12542,0.35125 0.47538,0.46233 1.17209,0.372 1.933,1.72584 1.933,3.43927 0,1.38026 -0.14284,1.73169 -1.088,2.67685 -0.95836,0.95836 -1.28628,1.088 -2.752,1.088 -1.46573,0 -1.79365,-0.12964 -2.752,-1.088 z m 0.60753,0.78095 c -1.8379,-1.12063 -2.53626,-3.52371 -1.56603,-5.38884 1.702,-3.2719 5.71899,-3.2719 7.42099,0 1.88337,3.62053 -2.35592,7.52233 -5.85496,5.38884 z m 0,0 c -1.8379,-1.12063 -2.53626,-3.52371 -1.56603,-5.38884 1.702,-3.2719 5.71899,-3.2719 7.42099,0 1.88337,3.62053 -2.35592,7.52233 -5.85496,5.38884 z m 0.35733,0.4922 c -4.29922,-1.87188 -2.91295,-8.34515 1.78714,-8.34515 4.74583,0 6.08735,6.53254 1.71655,8.35878 -1.306,0.54568 -2.22734,0.54209 -3.50369,-0.0136 z m 0,0 c -4.29922,-1.87188 -2.91295,-8.34515 1.78714,-8.34515 4.74583,0 6.08735,6.53254 1.71655,8.35878 -1.306,0.54568 -2.22734,0.54209 -3.50369,-0.0136 z m -0.49814,0.0845 c -2.33553,-1.35429 -3.16639,-4.31947 -1.78834,-6.38228 1.93026,-2.88942 6.21698,-2.88942 8.14724,0 1.39053,2.08151 0.53506,5.06295 -1.83492,6.39496 -1.52245,0.85566 -3.03379,0.85143 -4.52397,-0.0127 z"
         style="fill:#356250;stroke-width:0.31999999"
         id="path4526-5-2-9-5"
         inkscape:connector-curvature="0" /></g></g></g></svg>